# xmcd database file
#
# Track frame offsets:
# 150
# 10010
# 21272
# 30730
# 42207
# 57895
# 68825
# 80952
# 92490
# 105295
# 119317
# 131245
# 141652
# 153102
# 167450
# 178572
# 188522
# 201442
# 215125
# 224247
# 235147
# 248287
# 261245
# 273722
# 286397
#
# Disc length: 3971 seconds
#
# Revision: 0
# Processed by: cddbd v1.5.2PL0 Copyright (c) Steve Scherf et al.
# Submitted via: CD-Runner 2006.50
#
DISCID=700f8119
DTITLE=Frankie Laine - High Noon
DYEAR=1900
DGENRE=Country
TTITLE0=I Believe
TTITLE1=The Ruby And The Pearl
TTITLE2=Sittin' In The Sun
TTITLE3=Where The Winds Blow
TTITLE4=When It's Sleepy Time Down South
TTITLE5=Your Cheatin' Heart
TTITLE6=Rock Of Gibraltar
TTITLE7=All Of Me
TTITLE8=Snow In Lover's Lane
TTITLE9=To Be Worthy Of You
TTITLE10=High Noon
TTITLE11=Hey Joe
TTITLE12=I Let Her Go
TTITLE13=Jealousy
TTITLE14=How Lovely Cooks The Meat (with Doris Day)
TTITLE15=Flamingo
TTITLE16=Necessary Evil
TTITLE17=Song Of The Islands
TTITLE18=Hambone (with Jo Stafford)
TTITLE19=I May Be Wrong
TTITLE20=The Mermaid
TTITLE21=When You're Smiling
TTITLE22=Let's Have A Party ( With Jo Stafford)
TTITLE23=On The Sunny Side Of The Street
TTITLE24=That's How It Goes
EXTD=
EXTT0=
EXTT1=
EXTT2=
EXTT3=
EXTT4=
EXTT5=
EXTT6=
EXTT7=
EXTT8=
EXTT9=
EXTT10=
EXTT11=
EXTT12=
EXTT13=
EXTT14=
EXTT15=
EXTT16=
EXTT17=
EXTT18=
EXTT19=
EXTT20=
EXTT21=
EXTT22=
EXTT23=
EXTT24=
PLAYORDER=
